<svg width="403" height="62" viewBox="0 0 403 62" fill="none" xmlns="http://www.w3.org/2000/svg">
<rect x="360.087" width="42" height="22" rx="11" fill="#BBBBBB"/>
<path d="M372.347 11.22V9.08H373.567C373.747 9.08 373.92 9.09333 374.087 9.12C374.253 9.14667 374.4 9.2 374.527 9.28C374.653 9.35333 374.753 9.46 374.827 9.6C374.907 9.74 374.947 9.92333 374.947 10.15C374.947 10.3767 374.907 10.56 374.827 10.7C374.753 10.84 374.653 10.95 374.527 11.03C374.4 11.1033 374.253 11.1533 374.087 11.18C373.92 11.2067 373.747 11.22 373.567 11.22H372.347ZM370.777 7.86V15H372.347V12.44H373.997C374.443 12.44 374.823 12.3767 375.137 12.25C375.45 12.1167 375.703 11.9433 375.897 11.73C376.097 11.5167 376.24 11.2733 376.327 11C376.42 10.72 376.467 10.4367 376.467 10.15C376.467 9.85667 376.42 9.57333 376.327 9.3C376.24 9.02667 376.097 8.78333 375.897 8.57C375.703 8.35667 375.45 8.18667 375.137 8.06C374.823 7.92667 374.443 7.86 373.997 7.86H370.777ZM379.017 11.09V9.08H380.737C381.097 9.08 381.367 9.16 381.547 9.32C381.727 9.47333 381.817 9.72333 381.817 10.07C381.817 10.43 381.727 10.69 381.547 10.85C381.367 11.01 381.097 11.09 380.737 11.09H379.017ZM377.447 7.86V15H379.017V12.21H380.587C380.98 12.21 381.263 12.2967 381.437 12.47C381.61 12.6433 381.723 12.9167 381.777 13.29C381.817 13.5767 381.847 13.8767 381.867 14.19C381.887 14.5033 381.94 14.7733 382.027 15H383.597C383.523 14.9 383.467 14.78 383.427 14.64C383.393 14.4933 383.367 14.34 383.347 14.18C383.333 14.02 383.323 13.8633 383.317 13.71C383.31 13.5567 383.303 13.4233 383.297 13.31C383.283 13.13 383.257 12.95 383.217 12.77C383.183 12.59 383.127 12.4267 383.047 12.28C382.967 12.1267 382.863 11.9967 382.737 11.89C382.61 11.7767 382.45 11.6933 382.257 11.64V11.62C382.657 11.46 382.943 11.2267 383.117 10.92C383.297 10.6133 383.387 10.25 383.387 9.83C383.387 9.55667 383.337 9.30333 383.237 9.07C383.143 8.83 383.003 8.62 382.817 8.44C382.637 8.26 382.417 8.12 382.157 8.02C381.903 7.91333 381.617 7.86 381.297 7.86H377.447ZM385.924 11.46C385.924 11.1467 385.957 10.8433 386.024 10.55C386.097 10.2567 386.21 9.99667 386.364 9.77C386.517 9.53667 386.717 9.35333 386.964 9.22C387.21 9.08 387.51 9.01 387.864 9.01C388.217 9.01 388.517 9.08 388.764 9.22C389.01 9.35333 389.21 9.53667 389.364 9.77C389.517 9.99667 389.627 10.2567 389.694 10.55C389.767 10.8433 389.804 11.1467 389.804 11.46C389.804 11.76 389.767 12.0533 389.694 12.34C389.627 12.62 389.517 12.8733 389.364 13.1C389.21 13.3267 389.01 13.51 388.764 13.65C388.517 13.7833 388.217 13.85 387.864 13.85C387.51 13.85 387.21 13.7833 386.964 13.65C386.717 13.51 386.517 13.3267 386.364 13.1C386.21 12.8733 386.097 12.62 386.024 12.34C385.957 12.0533 385.924 11.76 385.924 11.46ZM384.354 11.46C384.354 11.98 384.434 12.4667 384.594 12.92C384.754 13.3667 384.984 13.7567 385.284 14.09C385.584 14.4233 385.95 14.6867 386.384 14.88C386.824 15.0667 387.317 15.16 387.864 15.16C388.417 15.16 388.91 15.0667 389.344 14.88C389.777 14.6867 390.144 14.4233 390.444 14.09C390.744 13.7567 390.974 13.3667 391.134 12.92C391.294 12.4667 391.374 11.98 391.374 11.46C391.374 10.9267 391.294 10.4333 391.134 9.98C390.974 9.52 390.744 9.12 390.444 8.78C390.144 8.44 389.777 8.17333 389.344 7.98C388.91 7.78667 388.417 7.69 387.864 7.69C387.317 7.69 386.824 7.78667 386.384 7.98C385.95 8.17333 385.584 8.44 385.284 8.78C384.984 9.12 384.754 9.52 384.594 9.98C384.434 10.4333 384.354 10.9267 384.354 11.46Z" fill="white"/>
<path d="M3.85156 14.4688H15.3828V18.5234H11.8203V45.9688H24.0781C24.3281 45.9688 24.5781 45.9141 24.8281 45.8047C25.0781 45.6797 25.3047 45.5234 25.5078 45.3359C25.7109 45.1484 25.875 44.9375 26 44.7031C26.125 44.4531 26.1875 44.2031 26.1875 43.9531V39.4766H30.6406V50H3.85156V45.9688H7.22656V18.5234H3.85156V14.4688ZM47.4922 47.75C46.5703 48.6094 45.5469 49.3125 44.4219 49.8594C43.3125 50.4062 42.0469 50.6797 40.625 50.6797C39.4375 50.6797 38.3438 50.4922 37.3438 50.1172C36.3594 49.7422 35.5078 49.2344 34.7891 48.5938C34.0703 47.9375 33.5078 47.1797 33.1016 46.3203C32.7109 45.4609 32.5156 44.5469 32.5156 43.5781C32.5156 42.5469 32.6641 41.6328 32.9609 40.8359C33.2734 40.0391 33.6797 39.3516 34.1797 38.7734C34.6953 38.1797 35.2891 37.6875 35.9609 37.2969C36.6484 36.8906 37.3594 36.5703 38.0938 36.3359C38.8438 36.0859 39.6016 35.9141 40.3672 35.8203C41.1484 35.7109 41.8906 35.6562 42.5938 35.6562C43.7188 35.6562 44.6641 35.6953 45.4297 35.7734C46.1953 35.8359 46.8906 35.9297 47.5156 36.0547L47.5391 34.0625C47.5391 33.2031 47.4141 32.4609 47.1641 31.8359C46.9141 31.1953 46.5625 30.6719 46.1094 30.2656C45.6562 29.8438 45.1094 29.5312 44.4688 29.3281C43.8438 29.125 43.1406 29.0234 42.3594 29.0234C41.625 29.0234 40.9219 29.0781 40.25 29.1875C39.5781 29.2812 38.9453 29.4141 38.3516 29.5859C37.7734 29.7422 37.2344 29.9297 36.7344 30.1484C36.25 30.3516 35.8359 30.5703 35.4922 30.8047L34.0625 27.7812C34.6406 27.4062 35.2734 27.0625 35.9609 26.75C36.6484 26.4219 37.3672 26.1484 38.1172 25.9297C38.8828 25.6953 39.6562 25.5156 40.4375 25.3906C41.2344 25.25 42.0156 25.1797 42.7812 25.1797C44.1875 25.1797 45.4531 25.3516 46.5781 25.6953C47.7031 26.0234 48.6562 26.5391 49.4375 27.2422C50.2188 27.9453 50.8203 28.8438 51.2422 29.9375C51.6641 31.0156 51.875 32.3125 51.875 33.8281L51.8516 45.9688H54.5469V50H47.4922V47.75ZM41.5859 47.0234C42.1641 47.0234 42.7422 46.9531 43.3203 46.8125C43.8984 46.6719 44.4453 46.4844 44.9609 46.25C45.4766 46 45.9531 45.7188 46.3906 45.4062C46.8281 45.0781 47.1953 44.7422 47.4922 44.3984L47.5156 38.9141H42.4531C41.6094 38.9141 40.8359 39.0078 40.1328 39.1953C39.4453 39.3828 38.8438 39.6562 38.3281 40.0156C37.8281 40.375 37.4375 40.8203 37.1562 41.3516C36.875 41.8828 36.7344 42.4922 36.7344 43.1797C36.7344 43.8203 36.8516 44.3828 37.0859 44.8672C37.3203 45.3359 37.6484 45.7344 38.0703 46.0625C38.5078 46.375 39.0234 46.6172 39.6172 46.7891C40.2109 46.9453 40.8672 47.0234 41.5859 47.0234ZM75.4531 45.9688H78.875V34.8828C78.875 33.0234 78.3984 31.6172 77.4453 30.6641C76.5078 29.6953 75.1562 29.2109 73.3906 29.2109C72.375 29.2109 71.3516 29.4531 70.3203 29.9375C69.2891 30.4219 68.3125 31.0234 67.3906 31.7422V45.9688H70.8125V50H59.4688V45.9688H62.8438V29.75H59.4688V25.7188H67.2031V28.5781H67.25C67.7656 28.125 68.3125 27.6953 68.8906 27.2891C69.4844 26.8828 70.1016 26.5312 70.7422 26.2344C71.3828 25.9375 72.0469 25.7031 72.7344 25.5312C73.4375 25.3594 74.1719 25.2734 74.9375 25.2734C76.2344 25.2734 77.4062 25.4531 78.4531 25.8125C79.5 26.1719 80.3906 26.7188 81.125 27.4531C81.8594 28.1875 82.4219 29.1328 82.8125 30.2891C83.2188 31.4297 83.4219 32.7812 83.4219 34.3438V45.9688H86.7969V50H75.4531V45.9688ZM105.805 13.5312H113.469V45.9688H117.031V50H109.109V48.0078C108.328 48.8047 107.422 49.4297 106.391 49.8828C105.359 50.3203 104.188 50.5391 102.875 50.5391C101.234 50.5391 99.7031 50.2578 98.2812 49.6953C96.875 49.1172 95.6484 48.2812 94.6016 47.1875C93.5703 46.0781 92.7578 44.7266 92.1641 43.1328C91.5859 41.5234 91.2969 39.6875 91.2969 37.625C91.2969 35.75 91.5781 34.0469 92.1406 32.5156C92.7031 30.9688 93.5 29.6562 94.5312 28.5781C95.5625 27.4844 96.8047 26.6406 98.2578 26.0469C99.7109 25.4375 101.328 25.1328 103.109 25.1328C104.281 25.1328 105.352 25.2656 106.32 25.5312C107.289 25.7812 108.219 26.2266 109.109 26.8672V17.5625H105.805V13.5312ZM103.438 46.7422C104.734 46.7422 105.82 46.5547 106.695 46.1797C107.57 45.7891 108.375 45.2109 109.109 44.4453V30.8516C108.328 30.1953 107.43 29.7188 106.414 29.4219C105.398 29.125 104.359 28.9766 103.297 28.9766C102.266 28.9766 101.297 29.1719 100.391 29.5625C99.4844 29.9375 98.6875 30.4922 98 31.2266C97.3281 31.9609 96.7969 32.8594 96.4062 33.9219C96.0156 34.9844 95.8203 36.2031 95.8203 37.5781C95.8203 39.0781 96.0078 40.3984 96.3828 41.5391C96.7578 42.6797 97.2812 43.6406 97.9531 44.4219C98.625 45.1875 99.4297 45.7656 100.367 46.1562C101.305 46.5469 102.328 46.7422 103.438 46.7422ZM121.016 25.7188H128.938V45.9688H132.594V50H121.062V45.9688H124.531V29.75H121.016V25.7188ZM123.711 17.1172C123.711 16.7109 123.789 16.3281 123.945 15.9688C124.117 15.5938 124.336 15.2734 124.602 15.0078C124.883 14.7266 125.211 14.5078 125.586 14.3516C125.961 14.1797 126.359 14.0938 126.781 14.0938C127.188 14.0938 127.57 14.1797 127.93 14.3516C128.305 14.5078 128.625 14.7266 128.891 15.0078C129.172 15.2734 129.391 15.5938 129.547 15.9688C129.719 16.3281 129.805 16.7109 129.805 17.1172C129.805 17.5391 129.719 17.9375 129.547 18.3125C129.391 18.6875 129.172 19.0234 128.891 19.3203C128.625 19.6016 128.305 19.8281 127.93 20C127.57 20.1562 127.188 20.2344 126.781 20.2344C126.359 20.2344 125.961 20.1562 125.586 20C125.211 19.8281 124.883 19.6016 124.602 19.3203C124.336 19.0234 124.117 18.6875 123.945 18.3125C123.789 17.9375 123.711 17.5391 123.711 17.1172ZM152.609 45.9688H156.031V34.8828C156.031 33.0234 155.555 31.6172 154.602 30.6641C153.664 29.6953 152.312 29.2109 150.547 29.2109C149.531 29.2109 148.508 29.4531 147.477 29.9375C146.445 30.4219 145.469 31.0234 144.547 31.7422V45.9688H147.969V50H136.625V45.9688H140V29.75H136.625V25.7188H144.359V28.5781H144.406C144.922 28.125 145.469 27.6953 146.047 27.2891C146.641 26.8828 147.258 26.5312 147.898 26.2344C148.539 25.9375 149.203 25.7031 149.891 25.5312C150.594 25.3594 151.328 25.2734 152.094 25.2734C153.391 25.2734 154.562 25.4531 155.609 25.8125C156.656 26.1719 157.547 26.7188 158.281 27.4531C159.016 28.1875 159.578 29.1328 159.969 30.2891C160.375 31.4297 160.578 32.7812 160.578 34.3438V45.9688H163.953V50H152.609V45.9688ZM186.406 47.8672C185.609 48.7109 184.68 49.3672 183.617 49.8359C182.57 50.3047 181.375 50.5391 180.031 50.5391C178.391 50.5391 176.859 50.2578 175.438 49.6953C174.031 49.1172 172.805 48.2812 171.758 47.1875C170.727 46.0781 169.914 44.7266 169.32 43.1328C168.742 41.5234 168.453 39.6875 168.453 37.625C168.453 35.75 168.734 34.0469 169.297 32.5156C169.859 30.9688 170.656 29.6562 171.688 28.5781C172.719 27.4844 173.961 26.6406 175.414 26.0469C176.867 25.4375 178.484 25.1328 180.266 25.1328C181.484 25.1328 182.578 25.2734 183.547 25.5547C184.531 25.8203 185.484 26.2891 186.406 26.9609V25.7188H190.766V49.0391C190.766 52.8828 189.852 55.7891 188.023 57.7578C186.211 59.7266 183.383 60.7109 179.539 60.7109C178.695 60.7109 177.812 60.6484 176.891 60.5234C175.969 60.3984 175.055 60.1953 174.148 59.9141C173.258 59.6484 172.383 59.3047 171.523 58.8828C170.68 58.4609 169.898 57.9453 169.18 57.3359L171.523 53.7969C171.992 54.2031 172.523 54.5781 173.117 54.9219C173.727 55.2656 174.375 55.5547 175.062 55.7891C175.75 56.0391 176.461 56.2344 177.195 56.375C177.93 56.5156 178.664 56.5859 179.398 56.5859C180.602 56.5859 181.641 56.4609 182.516 56.2109C183.406 55.9609 184.133 55.5156 184.695 54.875C185.273 54.25 185.703 53.3984 185.984 52.3203C186.266 51.2422 186.406 49.875 186.406 48.2188V47.8672ZM180.594 46.7422C181.312 46.7422 181.969 46.6719 182.562 46.5312C183.156 46.3906 183.695 46.2109 184.18 45.9922C184.664 45.7578 185.086 45.4922 185.445 45.1953C185.82 44.8984 186.141 44.5859 186.406 44.2578V30.9688C185.609 30.2656 184.688 29.7578 183.641 29.4453C182.609 29.1328 181.547 28.9766 180.453 28.9766C179.422 28.9766 178.453 29.1719 177.547 29.5625C176.641 29.9375 175.844 30.4922 175.156 31.2266C174.484 31.9609 173.953 32.8594 173.562 33.9219C173.172 34.9844 172.977 36.2031 172.977 37.5781C172.977 39.0781 173.164 40.3984 173.539 41.5391C173.914 42.6797 174.438 43.6406 175.109 44.4219C175.781 45.1875 176.586 45.7656 177.523 46.1562C178.461 46.5469 179.484 46.7422 180.594 46.7422ZM208.273 14.4688H222.641C224.234 14.4688 225.695 14.6797 227.023 15.1016C228.367 15.5078 229.523 16.1172 230.492 16.9297C231.477 17.7266 232.234 18.7266 232.766 19.9297C233.312 21.1328 233.586 22.5156 233.586 24.0781C233.586 25.375 233.32 26.6016 232.789 27.7578C232.258 28.8984 231.508 29.8984 230.539 30.7578C229.57 31.6172 228.406 32.2969 227.047 32.7969C225.703 33.2969 224.203 33.5469 222.547 33.5469H216.242V45.9688H219.805V50H208.273V45.9688H211.648V18.5234H208.273V14.4688ZM216.242 18.5234V29.7031H222.641C223.531 29.7031 224.344 29.5859 225.078 29.3516C225.828 29.1016 226.469 28.7422 227 28.2734C227.547 27.8047 227.969 27.2188 228.266 26.5156C228.578 25.8125 228.734 25 228.734 24.0781C228.734 22.3281 228.203 20.9688 227.141 20C226.078 19.0156 224.383 18.5234 222.055 18.5234H216.242ZM249.57 47.75C248.648 48.6094 247.625 49.3125 246.5 49.8594C245.391 50.4062 244.125 50.6797 242.703 50.6797C241.516 50.6797 240.422 50.4922 239.422 50.1172C238.438 49.7422 237.586 49.2344 236.867 48.5938C236.148 47.9375 235.586 47.1797 235.18 46.3203C234.789 45.4609 234.594 44.5469 234.594 43.5781C234.594 42.5469 234.742 41.6328 235.039 40.8359C235.352 40.0391 235.758 39.3516 236.258 38.7734C236.773 38.1797 237.367 37.6875 238.039 37.2969C238.727 36.8906 239.438 36.5703 240.172 36.3359C240.922 36.0859 241.68 35.9141 242.445 35.8203C243.227 35.7109 243.969 35.6562 244.672 35.6562C245.797 35.6562 246.742 35.6953 247.508 35.7734C248.273 35.8359 248.969 35.9297 249.594 36.0547L249.617 34.0625C249.617 33.2031 249.492 32.4609 249.242 31.8359C248.992 31.1953 248.641 30.6719 248.188 30.2656C247.734 29.8438 247.188 29.5312 246.547 29.3281C245.922 29.125 245.219 29.0234 244.438 29.0234C243.703 29.0234 243 29.0781 242.328 29.1875C241.656 29.2812 241.023 29.4141 240.43 29.5859C239.852 29.7422 239.312 29.9297 238.812 30.1484C238.328 30.3516 237.914 30.5703 237.57 30.8047L236.141 27.7812C236.719 27.4062 237.352 27.0625 238.039 26.75C238.727 26.4219 239.445 26.1484 240.195 25.9297C240.961 25.6953 241.734 25.5156 242.516 25.3906C243.312 25.25 244.094 25.1797 244.859 25.1797C246.266 25.1797 247.531 25.3516 248.656 25.6953C249.781 26.0234 250.734 26.5391 251.516 27.2422C252.297 27.9453 252.898 28.8438 253.32 29.9375C253.742 31.0156 253.953 32.3125 253.953 33.8281L253.93 45.9688H256.625V50H249.57V47.75ZM243.664 47.0234C244.242 47.0234 244.82 46.9531 245.398 46.8125C245.977 46.6719 246.523 46.4844 247.039 46.25C247.555 46 248.031 45.7188 248.469 45.4062C248.906 45.0781 249.273 44.7422 249.57 44.3984L249.594 38.9141H244.531C243.688 38.9141 242.914 39.0078 242.211 39.1953C241.523 39.3828 240.922 39.6562 240.406 40.0156C239.906 40.375 239.516 40.8203 239.234 41.3516C238.953 41.8828 238.812 42.4922 238.812 43.1797C238.812 43.8203 238.93 44.3828 239.164 44.8672C239.398 45.3359 239.727 45.7344 240.148 46.0625C240.586 46.375 241.102 46.6172 241.695 46.7891C242.289 46.9453 242.945 47.0234 243.664 47.0234ZM279.312 47.8672C278.516 48.7109 277.586 49.3672 276.523 49.8359C275.477 50.3047 274.281 50.5391 272.938 50.5391C271.297 50.5391 269.766 50.2578 268.344 49.6953C266.938 49.1172 265.711 48.2812 264.664 47.1875C263.633 46.0781 262.82 44.7266 262.227 43.1328C261.648 41.5234 261.359 39.6875 261.359 37.625C261.359 35.75 261.641 34.0469 262.203 32.5156C262.766 30.9688 263.562 29.6562 264.594 28.5781C265.625 27.4844 266.867 26.6406 268.32 26.0469C269.773 25.4375 271.391 25.1328 273.172 25.1328C274.391 25.1328 275.484 25.2734 276.453 25.5547C277.438 25.8203 278.391 26.2891 279.312 26.9609V25.7188H283.672V49.0391C283.672 52.8828 282.758 55.7891 280.93 57.7578C279.117 59.7266 276.289 60.7109 272.445 60.7109C271.602 60.7109 270.719 60.6484 269.797 60.5234C268.875 60.3984 267.961 60.1953 267.055 59.9141C266.164 59.6484 265.289 59.3047 264.43 58.8828C263.586 58.4609 262.805 57.9453 262.086 57.3359L264.43 53.7969C264.898 54.2031 265.43 54.5781 266.023 54.9219C266.633 55.2656 267.281 55.5547 267.969 55.7891C268.656 56.0391 269.367 56.2344 270.102 56.375C270.836 56.5156 271.57 56.5859 272.305 56.5859C273.508 56.5859 274.547 56.4609 275.422 56.2109C276.312 55.9609 277.039 55.5156 277.602 54.875C278.18 54.25 278.609 53.3984 278.891 52.3203C279.172 51.2422 279.312 49.875 279.312 48.2188V47.8672ZM273.5 46.7422C274.219 46.7422 274.875 46.6719 275.469 46.5312C276.062 46.3906 276.602 46.2109 277.086 45.9922C277.57 45.7578 277.992 45.4922 278.352 45.1953C278.727 44.8984 279.047 44.5859 279.312 44.2578V30.9688C278.516 30.2656 277.594 29.7578 276.547 29.4453C275.516 29.1328 274.453 28.9766 273.359 28.9766C272.328 28.9766 271.359 29.1719 270.453 29.5625C269.547 29.9375 268.75 30.4922 268.062 31.2266C267.391 31.9609 266.859 32.8594 266.469 33.9219C266.078 34.9844 265.883 36.2031 265.883 37.5781C265.883 39.0781 266.07 40.3984 266.445 41.5391C266.82 42.6797 267.344 43.6406 268.016 44.4219C268.688 45.1875 269.492 45.7656 270.43 46.1562C271.367 46.5469 272.391 46.7422 273.5 46.7422ZM293.797 38.4219C293.797 39.1094 293.844 39.7422 293.938 40.3203C294.047 40.8828 294.195 41.4219 294.383 41.9375C294.961 43.5 295.883 44.6797 297.148 45.4766C298.43 46.2578 299.875 46.6484 301.484 46.6484C302.75 46.6484 303.977 46.4766 305.164 46.1328C306.367 45.7734 307.625 45.2188 308.938 44.4688L310.695 47.4453C309.102 48.5391 307.5 49.3516 305.891 49.8828C304.281 50.4141 302.609 50.6797 300.875 50.6797C299.234 50.6797 297.711 50.4062 296.305 49.8594C294.914 49.3125 293.711 48.5 292.695 47.4219C291.695 46.3438 290.906 45 290.328 43.3906C289.766 41.7812 289.484 39.9062 289.484 37.7656C289.484 36.0312 289.727 34.3984 290.211 32.8672C290.695 31.3203 291.414 29.9766 292.367 28.8359C293.336 27.6797 294.531 26.7656 295.953 26.0938C297.375 25.4219 299.031 25.0859 300.922 25.0859C302.75 25.0859 304.273 25.3672 305.492 25.9297C306.727 26.4766 307.727 27.2109 308.492 28.1328C309.273 29.0391 309.859 30.0781 310.25 31.25C310.656 32.4219 310.938 33.6172 311.094 34.8359C311.172 35.4297 311.219 36.0312 311.234 36.6406C311.266 37.25 311.281 37.8438 311.281 38.4219H293.797ZM300.617 28.7422C299.602 28.7422 298.711 28.8906 297.945 29.1875C297.195 29.4688 296.555 29.8828 296.023 30.4297C295.492 30.9609 295.062 31.6172 294.734 32.3984C294.422 33.1797 294.188 34.0547 294.031 35.0234H306.617C306.555 34.1172 306.406 33.2812 306.172 32.5156C305.953 31.75 305.609 31.0859 305.141 30.5234C304.672 29.9609 304.07 29.5234 303.336 29.2109C302.602 28.8984 301.695 28.7422 300.617 28.7422ZM331.25 32.2344C331.25 31.5781 331.094 31.0234 330.781 30.5703C330.484 30.1016 330.094 29.7266 329.609 29.4453C329.125 29.1484 328.586 28.9375 327.992 28.8125C327.398 28.6719 326.82 28.6016 326.258 28.6016C325.633 28.6016 325.055 28.6719 324.523 28.8125C324.008 28.9531 323.562 29.1562 323.188 29.4219C322.812 29.6875 322.516 30.0156 322.297 30.4062C322.094 30.7812 321.992 31.2031 321.992 31.6719C321.992 32.4844 322.234 33.1328 322.719 33.6172C323.219 34.0859 324.047 34.5234 325.203 34.9297L329.867 36.5703C331.867 37.2422 333.328 38.1562 334.25 39.3125C335.172 40.4688 335.633 41.8516 335.633 43.4609C335.633 44.5391 335.414 45.5312 334.977 46.4375C334.555 47.3281 333.945 48.0938 333.148 48.7344C332.367 49.3594 331.422 49.8438 330.312 50.1875C329.203 50.5469 327.969 50.7266 326.609 50.7266C324.719 50.7266 323.18 50.4219 321.992 49.8125C320.805 49.2031 319.891 48.3984 319.25 47.3984H316.812V43.3672H321.664C321.664 44.0391 321.805 44.6172 322.086 45.1016C322.383 45.5703 322.766 45.9531 323.234 46.25C323.719 46.5469 324.258 46.7656 324.852 46.9062C325.461 47.0469 326.078 47.1172 326.703 47.1172C327.312 47.1172 327.898 47.0469 328.461 46.9062C329.023 46.75 329.516 46.5312 329.938 46.25C330.375 45.9531 330.719 45.6016 330.969 45.1953C331.219 44.7891 331.344 44.3281 331.344 43.8125C331.344 43.0312 331.086 42.3672 330.57 41.8203C330.07 41.2734 329.211 40.7812 327.992 40.3438L323.352 38.6094C321.461 37.9375 320.055 37.0859 319.133 36.0547C318.227 35.0078 317.773 33.7031 317.773 32.1406C317.773 31.1094 317.961 30.1562 318.336 29.2812C318.727 28.4062 319.281 27.6562 320 27.0312C320.734 26.3906 321.625 25.8906 322.672 25.5312C323.719 25.1719 324.914 24.9922 326.258 24.9922C327.992 24.9922 329.445 25.2344 330.617 25.7188C331.789 26.2031 332.844 27.0312 333.781 28.2031H336.055V32.2344H331.25Z" fill="#444444"/>
</svg>
