<svg width="17" height="16" viewBox="0 0 17 16" fill="none" xmlns="http://www.w3.org/2000/svg">
<path d="M7.47631 0.532863L5.52331 4.49286L1.15431 5.12986C0.977572 5.15566 0.811583 5.2304 0.675119 5.34564C0.538655 5.46087 0.437162 5.61199 0.382119 5.7819C0.327077 5.95182 0.320681 6.13374 0.363658 6.3071C0.406635 6.48046 0.49727 6.63833 0.625306 6.76286L3.78631 9.84286L3.03531 14.1939C3.00498 14.3698 3.02454 14.5507 3.09177 14.7161C3.15899 14.8816 3.27119 15.0248 3.41566 15.1298C3.56012 15.2347 3.73109 15.297 3.90918 15.3098C4.08727 15.3225 4.26537 15.2851 4.42331 15.2019L8.33531 13.1479L12.2443 15.2029C12.4024 15.2867 12.5809 15.3244 12.7594 15.3119C12.938 15.2993 13.1094 15.237 13.2543 15.1319C13.3991 15.0268 13.5116 14.8832 13.579 14.7174C13.6463 14.5516 13.6659 14.3702 13.6353 14.1939L12.8833 9.84286L16.0443 6.76286C16.1723 6.63833 16.263 6.48046 16.306 6.3071C16.3489 6.13374 16.3425 5.95182 16.2875 5.7819C16.2324 5.61199 16.131 5.46087 15.9945 5.34564C15.858 5.2304 15.692 5.15566 15.5153 5.12986L11.1463 4.49286L9.19331 0.532863C9.11407 0.372869 8.99171 0.238199 8.84002 0.144045C8.68833 0.0498911 8.51334 0 8.33481 0C8.15627 0 7.98128 0.0498911 7.82959 0.144045C7.6779 0.238199 7.55554 0.372869 7.47631 0.532863Z" fill="#FDB82C"/>
</svg>
